<svg width="50" height="50" viewBox="0 0 50 50" fill="none" xmlns="http://www.w3.org/2000/svg">
<circle cx="25" cy="25" r="25" fill="#C7027D"/>
<path d="M37 32.0432V22.8773C37 21.9946 36.9993 21.553 36.9019 21.1421C36.8155 20.7781 36.6737 20.4336 36.4819 20.1223C36.2653 19.771 35.9644 19.4797 35.3611 18.8984L28.1611 11.9596C27.0412 10.8803 26.4812 10.3409 25.8511 10.1356C25.2958 9.95479 24.7039 9.95479 24.1486 10.1356C23.5189 10.3408 22.9597 10.8796 21.8415 11.9573L14.6392 18.8984C14.036 19.4797 13.7351 19.771 13.5185 20.1223C13.3267 20.4336 13.1838 20.7781 13.0975 21.1421C13 21.553 13 21.9946 13 22.8773V32.0432C13 33.5826 13 34.3522 13.2284 34.9595C13.5328 35.769 14.1165 36.413 14.8516 36.7484C15.4029 37 16.1018 37 17.4996 37C18.8974 37 19.5971 37 20.1484 36.7484C20.8835 36.413 21.467 35.7692 21.7715 34.9595C21.9999 34.3523 22 33.5826 22 32.043V30.3909C22 28.566 23.3431 27.0867 25 27.0867C26.6569 27.0867 28 28.566 28 30.3909V32.043C28 33.5826 28 34.3523 28.2283 34.9595C28.5328 35.7692 29.1164 36.413 29.8516 36.7484C30.4028 37 31.1019 37 32.4995 37C33.8974 37 34.5972 37 35.1484 36.7484C35.8836 36.413 36.4671 35.769 36.7715 34.9595C36.9998 34.3522 37 33.5826 37 32.0432Z" fill="#D9D9D9"/>
</svg>
