<svg width="214" height="53" viewBox="0 0 214 53" fill="none" xmlns="http://www.w3.org/2000/svg">
<g clip-path="url(#clip0_5_8)">
<rect width="65" height="53" rx="7" fill="black"/>
<path d="M25.4096 11.2791C16.8753 11.2791 9.93079 18.1083 9.93079 26.501C9.93079 34.8936 16.8753 41.7229 25.4096 41.7229C33.9439 41.7229 40.8884 34.8936 40.8884 26.501C40.8884 18.1083 33.9439 11.2791 25.4096 11.2791ZM25.4096 30.2743C23.2912 30.2743 21.5726 28.5842 21.5726 26.501C21.5726 24.4177 23.2912 22.7276 25.4096 22.7276C27.528 22.7276 29.2466 24.4177 29.2466 26.501C29.2466 28.5842 27.528 30.2743 25.4096 30.2743Z" fill="#1436F3"/>
<path d="M61.8337 0H3.16625C1.41733 0 0 1.39381 0 3.1137V49.8863C0 51.6062 1.41733 53 3.16625 53H61.8337C63.5827 53 65 51.6062 65 49.8863V3.1137C65 1.39381 63.5827 0 61.8337 0ZM25.4096 45.8745C14.5466 45.8745 5.7091 37.1837 5.7091 26.5009C5.7091 15.8182 14.5466 7.12741 25.4096 7.12741C36.2726 7.12741 45.11 15.8182 45.11 26.5009C45.11 37.1837 36.2726 45.8745 25.4096 45.8745ZM56.6988 43.8676C56.6988 45.0136 55.7533 45.9434 54.5879 45.9434C53.4226 45.9434 52.4771 45.0136 52.4771 43.8676V24.4717H56.6988V43.8676ZM59.9351 18.7269C59.9351 19.6064 59.2113 20.3183 58.317 20.3183H50.8589C49.9646 20.3183 49.2408 19.6064 49.2408 18.7269V12.7772C49.2408 11.8977 49.9646 11.1858 50.8589 11.1858H52.4771V9.13241C52.4771 7.98643 53.4226 7.0566 54.5879 7.0566C55.7533 7.0566 56.6988 7.98643 56.6988 9.13241V11.1858H58.317C59.2113 11.1858 59.9351 11.8977 59.9351 12.7772V18.7269Z" fill="#C7027D"/>
</g>
<path d="M79.952 38V12.08H84.688V34.736H90.96V38H79.952ZM93.5488 38V12.08H98.2208V38H93.5488ZM102.233 38V12.08H105.529L111.833 26.864V12.08H115.737V38H112.601L106.265 22.512V38H102.233ZM119.671 38V12.08H130.551V15.408H124.407V22.864H129.239V26.16H124.407V34.736H130.615V38H119.671Z" fill="#FF16A8"/>
<path d="M143.86 38L140.18 12.08H144.148L146.292 28.88L148.98 12.144H152.212L154.964 28.88L157.076 12.08H160.98L157.364 38H153.524L150.644 20.624L147.796 38H143.86ZM161.859 38L167.043 12.08H172.099L177.283 38H172.899L171.875 32.016H167.363L166.307 38H161.859ZM167.843 29.008H171.363L169.603 18.128L167.843 29.008ZM182.701 38L177.485 12.08H181.677L185.101 30.416L188.301 12.08H192.589L187.373 38H182.701ZM195.233 38V12.08H206.113V15.408H199.969V22.864H204.801V26.16H199.969V34.736H206.177V38H195.233Z" fill="#1436F3"/>
<defs>
<clipPath id="clip0_5_8">
<rect width="65" height="53" rx="7" fill="white"/>
</clipPath>
</defs>
</svg>
