<svg width="585" height="488" viewBox="0 0 585 488" fill="none" xmlns="http://www.w3.org/2000/svg">
<g clip-path="url(#clip0_228_94)">
<path d="M228.686 103.852C151.878 103.852 89.377 166.733 89.377 244.009C89.377 321.284 151.878 384.165 228.686 384.165C305.495 384.165 367.995 321.284 367.995 244.009C367.995 166.733 305.495 103.852 228.686 103.852ZM228.686 278.752C209.621 278.752 194.153 263.19 194.153 244.009C194.153 224.827 209.621 209.265 228.686 209.265C247.752 209.265 263.219 224.827 263.219 244.009C263.219 263.19 247.752 278.752 228.686 278.752Z" fill="#1436F3"/>
<path d="M556.504 0H28.4962C12.7559 0 0 12.8335 0 28.6695V459.33C0 475.166 12.7559 488 28.4962 488H556.504C572.244 488 585 475.166 585 459.33V28.6695C585 12.8335 572.244 0 556.504 0ZM228.686 422.391C130.919 422.391 51.3819 342.37 51.3819 244.009C51.3819 145.647 130.919 65.626 228.686 65.626C326.453 65.626 405.99 145.647 405.99 244.009C405.99 342.37 326.453 422.391 228.686 422.391ZM510.289 403.913C510.289 414.465 501.779 423.026 491.292 423.026C480.804 423.026 472.294 414.465 472.294 403.913V225.324H510.289V403.913ZM539.416 172.429C539.416 180.527 532.902 187.081 524.853 187.081H457.73C449.681 187.081 443.167 180.527 443.167 172.429V117.646C443.167 109.548 449.681 102.994 457.73 102.994H472.294V84.0871C472.294 73.5354 480.804 64.974 491.292 64.974C501.779 64.974 510.289 73.5354 510.289 84.0871V102.994H524.853C532.902 102.994 539.416 109.548 539.416 117.646V172.429Z" fill="#C7027D"/>
</g>
<defs>
<clipPath id="clip0_228_94">
<rect width="585" height="488" rx="7" fill="white"/>
</clipPath>
</defs>
</svg>
