<svg width="42" height="36" viewBox="0 0 42 36" fill="none" xmlns="http://www.w3.org/2000/svg">
<path fill-rule="evenodd" clip-rule="evenodd" d="M37.6476 0.251623C39.9207 -0.708675 42.3577 1.21987 41.9563 3.66152L37.2154 32.5011C36.7583 35.2818 33.7143 36.8773 31.1716 35.4916C29.0438 34.3321 25.887 32.5474 23.042 30.6823C21.6213 29.7508 17.2712 26.7643 17.8059 24.6383C18.2631 22.8206 25.5761 15.9907 29.7551 11.9289C31.3966 10.3334 30.649 9.41168 28.7104 10.8807C23.9012 14.5249 16.1801 20.0655 13.6268 21.6248C11.3741 23.0004 10.1979 23.2352 8.79488 23.0004C6.23288 22.5721 3.85761 21.9088 1.91839 21.1023C-0.702613 20.0122 -0.574945 16.3984 1.91661 15.346L37.6476 0.251623Z" fill="white"/>
</svg>
