<svg width="49" height="30" viewBox="0 0 49 30" fill="none" xmlns="http://www.w3.org/2000/svg">
<path d="M48.5632 26.7581C48.4316 26.5215 47.6167 24.6219 43.6967 20.7177C39.5924 16.6294 40.1439 17.2933 45.0872 10.2243C48.0977 5.91907 49.3016 3.28996 48.9247 2.16601C48.5662 1.09465 46.3522 1.37728 46.3522 1.37728L38.9893 1.42329C38.9893 1.42329 38.4439 1.34441 38.0369 1.60404C37.6416 1.86038 37.3874 2.45193 37.3874 2.45193C37.3874 2.45193 36.2205 5.78434 34.6646 8.6172C31.3845 14.5951 30.0705 14.9106 29.5346 14.5393C28.288 13.675 28.6004 11.0623 28.6004 9.20876C28.6004 3.41484 29.4182 0.999341 27.0048 0.374928C26.2023 0.167884 25.6143 0.029856 23.5653 0.00685119C20.9375 -0.0227264 18.7109 0.0167104 17.4521 0.677276C16.6129 1.11765 15.9667 2.10028 16.3618 2.15616C16.8487 2.22517 17.9513 2.47494 18.5363 3.3294C19.2928 4.43032 19.2652 6.90829 19.2652 6.90829C19.2652 6.90829 19.7002 13.7275 18.2515 14.5754C17.2561 15.1571 15.8932 13.9707 12.9683 8.5449C11.4706 5.76791 10.3374 2.69512 10.3374 2.69512C10.3374 2.69512 10.1199 2.12329 9.73096 1.81765C9.25931 1.44629 8.59777 1.32798 8.59777 1.32798L1.59636 1.37399C1.59636 1.37399 0.545849 1.40686 0.159946 1.89653C-0.18308 2.33362 0.132381 3.23409 0.132381 3.23409C0.132381 3.23409 5.61465 16.9942 11.8198 23.9318C17.5134 30.291 23.9757 29.8736 23.9757 29.8736H26.9037C26.9037 29.8736 27.7888 29.7684 28.239 29.2459C28.6556 28.7661 28.6403 27.8656 28.6403 27.8656C28.6403 27.8656 28.5821 23.6492 30.4074 23.028C32.2053 22.4168 34.5146 27.1032 36.9617 28.9074C38.8114 30.2713 40.2174 29.9722 40.2174 29.9722L46.7623 29.8736C46.7623 29.8736 50.1866 29.6469 48.5632 26.7581Z" fill="white"/>
</svg>
