<svg width="51" height="36" viewBox="0 0 51 36" fill="none" xmlns="http://www.w3.org/2000/svg">
<path fill-rule="evenodd" clip-rule="evenodd" d="M20.3705 24.65V10.2196C25.4506 12.6302 29.3852 14.9588 34.0386 17.4693C30.2005 19.6157 25.4506 22.0241 20.3705 24.65ZM48.6821 3.04273C47.8057 1.87849 46.3122 0.972228 44.7221 0.672194C40.0484 -0.222791 10.891 -0.225337 6.21984 0.672194C4.94473 0.913239 3.80928 1.49588 2.8339 2.40113C-1.27592 6.24773 0.0118988 26.8758 1.00253 30.2172C1.41909 31.6636 1.95761 32.7066 2.63581 33.3913C3.50959 34.2966 4.70594 34.9199 6.08011 35.1994C9.92831 36.002 29.7535 36.4508 44.6408 35.3199C46.0124 35.0789 47.2266 34.4355 48.1842 33.4918C51.9841 29.6606 51.7251 7.87405 48.6821 3.04273Z" fill="white"/>
</svg>
